# xmcd CD database file
#
# Track frame offsets:
#	150
#	11670
#	26923
#	42045
#	56833
#	74040
#	94030
#	107155
#	128788
#	145448
#	165610
#	176945
#	187833
#	205755
#	216158
#	233765
#	247943
#	272005
#	291965
#	307913
#
# Disc length: 4382 seconds
#
# Revision: 3
# Processed by: cddbd v1.5.2PL0 Copyright (c) Steve Scherf et al.
# Submitted via: CDex 2.21
#
DISCID=29111c14
DTITLE=Count Basie - Vol. 040
DYEAR=1957
DGENRE=Jazz
TTITLE0=the kid from red bank
TTITLE1=after supper
TTITLE2=flight of the foo birds
TTITLE3=teddy the toad
TTITLE4=whirly bird
TTITLE5=midnite blue
TTITLE6=fantail
TTITLE7=lil' darlin'
TTITLE8=vine street rumble
TTITLE9=katy-do
TTITLE10=jackson county jubilee
TTITLE11=sunset glow
TTITLE12=blue five jive
TTITLE13=rompin' at the reno
TTITLE14=the wiggle walk
TTITLE15=the trot
TTITLE16=easy money
TTITLE17=goin' on
TTITLE18=the swizzle
TTITLE19=the legend
EXTD=YEAR: 1957
EXTT0=
EXTT1=
EXTT2=
EXTT3=
EXTT4=
EXTT5=
EXTT6=
EXTT7=
EXTT8=
EXTT9=
EXTT10=
EXTT11=
EXTT12=
EXTT13=
EXTT14=
EXTT15=
EXTT16=
EXTT17=
EXTT18=
EXTT19=
PLAYORDER=
